<svg width="23" height="21" viewBox="0 0 23 21" fill="none" xmlns="http://www.w3.org/2000/svg">
<path d="M22.2071 13.7071C22.5976 13.3166 22.5976 12.6834 22.2071 12.2929L15.8431 5.92893C15.4526 5.53841 14.8195 5.53841 14.4289 5.92893C14.0384 6.31946 14.0384 6.95262 14.4289 7.34315L20.0858 13L14.4289 18.6569C14.0384 19.0474 14.0384 19.6805 14.4289 20.0711C14.8195 20.4616 15.4526 20.4616 15.8431 20.0711L22.2071 13.7071ZM0.5 0.5V9H2.5V0.5H0.5ZM5.5 14H21.5V12H5.5V14ZM0.5 9C0.5 11.7614 2.73858 14 5.5 14V12C3.84315 12 2.5 10.6569 2.5 9H0.5Z" fill="black"/>
</svg>
