<?xml version="1.0" standalone="no"?>
<!DOCTYPE svg PUBLIC "-//W3C//DTD SVG 20010904//EN"
 "http://www.w3.org/TR/2001/REC-SVG-20010904/DTD/svg10.dtd">
<svg version="1.0" xmlns="http://www.w3.org/2000/svg"
 width="2480.000000pt" height="2480.000000pt" viewBox="0 0 2480.000000 2480.000000"
 preserveAspectRatio="xMidYMid meet">

<g transform="translate(0.000000,2480.000000) scale(0.100000,-0.100000)"
fill="#000000" stroke="none">
<path d="M14595 22533 c-429 -53 -760 -163 -1096 -364 -488 -292 -788 -566
-992 -909 -277 -465 -483 -1378 -526 -2335 -14 -302 -32 -900 -34 -1129 l-2
-189 -52 124 c-217 518 -257 602 -399 846 -116 198 -325 514 -476 720 -69 92
-159 216 -200 274 -158 218 -395 466 -588 615 -475 366 -958 529 -1441 485
-338 -31 -655 -140 -889 -307 -117 -83 -352 -317 -443 -439 -116 -157 -205
-336 -263 -527 -149 -496 -174 -1099 -70 -1688 87 -490 211 -914 413 -1419
221 -552 449 -996 902 -1754 94 -158 174 -293 177 -300 3 -10 -36 -5 -147 19
-206 44 -294 54 -497 54 -264 0 -476 -40 -685 -130 -224 -97 -505 -320 -680
-540 -125 -157 -292 -428 -368 -600 -120 -268 -226 -651 -275 -996 -25 -171
-30 -671 -10 -854 73 -641 306 -1404 583 -1905 267 -485 626 -879 1007 -1110
101 -60 182 -98 321 -146 l109 -39 23 -97 c12 -54 41 -188 63 -298 84 -415
176 -701 332 -1039 193 -416 448 -742 863 -1102 350 -303 715 -509 1295 -731
442 -169 814 -271 1323 -361 l38 -7 63 -146 c191 -445 387 -722 757 -1071 385
-363 703 -576 1034 -691 594 -205 980 -219 1563 -57 367 103 1231 451 1591
642 163 86 222 123 631 394 487 323 606 405 800 553 276 210 422 340 593 529
400 441 708 901 811 1212 84 254 101 473 65 865 -39 428 -141 752 -335 1066
-145 235 -421 563 -609 726 -50 43 -126 110 -169 148 l-78 70 7 90 c11 158
-22 517 -76 825 -111 633 -352 1181 -919 2085 -86 138 -213 347 -282 465 -69
118 -172 292 -228 385 -204 338 -373 656 -470 885 -217 508 -284 903 -284
1665 0 561 63 1070 254 2025 175 876 231 1383 232 2080 0 952 -97 1795 -257
2225 -171 461 -466 796 -886 1010 -305 155 -531 206 -898 204 -108 -1 -209 -4
-226 -6z m518 -488 c294 -51 581 -209 776 -428 244 -274 359 -615 430 -1272
79 -723 88 -1479 26 -2085 -33 -313 -88 -664 -176 -1110 -249 -1264 -304
-1817 -259 -2630 36 -650 147 -1065 445 -1660 141 -282 162 -319 692 -1210 60
-102 171 -282 245 -400 193 -308 305 -504 428 -755 268 -544 362 -874 426
-1490 18 -179 15 -358 -12 -567 -59 -463 -272 -992 -550 -1363 -216 -289 -424
-505 -779 -810 -350 -301 -496 -411 -729 -550 -310 -185 -778 -401 -1156 -533
-333 -117 -649 -208 -870 -252 -538 -106 -894 -143 -1386 -142 -541 1 -907 54
-1429 207 -481 142 -1008 363 -1304 549 -269 168 -595 458 -794 706 -246 306
-445 737 -557 1205 -33 137 -90 416 -90 440 0 4 24 5 53 1 28 -3 138 -11 242
-16 105 -5 269 -15 365 -21 171 -11 176 -12 230 -44 308 -183 579 -253 1077
-277 545 -27 942 39 1268 211 166 87 286 174 454 329 l90 83 6 -28 c34 -161
73 -269 132 -366 46 -77 437 -623 471 -660 86 -92 225 -89 309 7 41 46 57 97
50 159 -7 52 -38 111 -192 357 -146 234 -245 405 -265 459 -59 155 -41 321 78
731 l56 195 277 555 c268 539 392 818 420 950 46 213 -160 379 -344 278 -62
-35 -98 -91 -147 -229 -80 -230 -146 -371 -353 -754 -47 -88 -125 -243 -172
-344 -98 -209 -154 -302 -301 -507 -448 -624 -727 -839 -1203 -926 -102 -19
-154 -22 -426 -22 -479 -1 -721 39 -957 159 -122 63 -150 84 -280 217 -217
219 -303 350 -432 651 -101 237 -139 392 -139 572 1 360 221 730 551 924 91
54 157 74 362 111 312 55 530 145 697 286 28 24 56 44 61 44 12 0 110 105 162
174 53 70 177 268 338 536 358 597 596 862 991 1100 248 149 414 190 776 193
202 2 219 -1 461 -74 89 -26 192 -53 230 -60 38 -6 79 -19 90 -28 12 -9 79
-60 148 -114 233 -181 426 -290 714 -401 271 -105 327 -121 430 -121 l94 0 30
34 c28 31 30 39 26 91 -2 35 -14 77 -29 106 -27 54 -22 50 -239 152 -258 121
-797 474 -959 627 -75 72 -121 126 -206 250 -26 39 -67 91 -91 118 -127 142
-279 387 -420 673 -159 325 -238 533 -333 874 -134 481 -191 876 -267 1850
-35 442 -38 505 -38 905 -2 877 29 1416 110 1905 114 690 257 1114 474 1400
219 287 750 654 1130 780 164 54 386 101 545 114 90 7 330 -4 418 -19z m-5882
-1879 c224 -52 446 -162 676 -334 205 -155 402 -365 583 -621 40 -58 109 -152
153 -210 43 -58 132 -185 196 -281 252 -375 378 -608 555 -1030 251 -598 347
-866 461 -1285 26 -93 68 -244 95 -335 26 -91 74 -253 105 -360 31 -107 83
-276 115 -375 108 -333 159 -529 240 -920 65 -313 98 -452 145 -608 46 -155
90 -335 84 -342 -3 -2 -54 -9 -114 -15 -240 -24 -413 -73 -608 -172 -146 -74
-381 -230 -508 -336 -237 -199 -506 -530 -706 -869 -43 -73 -80 -132 -83 -132
-3 -1 -25 38 -50 87 -25 48 -69 132 -98 187 -28 55 -92 183 -140 285 -89 185
-220 419 -315 560 -70 103 -237 320 -317 410 -107 122 -131 155 -276 380 -523
818 -997 1630 -1206 2070 -372 779 -606 1553 -668 2204 -12 125 -15 449 -5
553 43 450 134 748 293 959 238 315 477 469 837 538 121 23 138 24 300 21 115
-3 175 -10 256 -29z m-961 -6357 c407 -71 635 -179 845 -400 81 -85 90 -98
521 -764 273 -423 379 -599 423 -703 116 -277 211 -513 211 -526 0 -26 -138
-143 -218 -184 -97 -50 -173 -76 -287 -97 -346 -64 -388 -76 -520 -143 -441
-221 -770 -672 -850 -1167 -31 -190 -13 -445 46 -650 71 -247 219 -568 361
-784 l22 -34 -124 7 c-69 4 -190 16 -270 27 -337 47 -508 104 -707 236 -531
353 -940 1039 -1172 1968 -104 418 -136 647 -134 980 1 391 47 670 174 1050
166 498 500 928 855 1101 215 105 521 136 824 83z m10373 -5834 c95 -108 305
-381 391 -508 203 -300 287 -575 318 -1050 26 -404 -29 -598 -278 -972 -168
-253 -347 -474 -564 -699 -170 -176 -392 -356 -725 -588 -198 -137 -837 -561
-947 -627 -262 -157 -1121 -521 -1533 -650 -538 -167 -846 -166 -1350 6 -88
30 -187 70 -221 88 -253 137 -491 325 -783 616 -211 211 -325 367 -455 627
l-45 89 352 6 c194 3 399 11 457 16 461 47 942 133 1265 226 866 252 1618 596
2145 983 264 194 782 651 967 854 103 112 301 355 375 458 210 295 440 795
523 1138 9 39 21 72 26 72 4 0 42 -38 82 -85z"/>
</g>
</svg>
