<?xml version="1.0" encoding="UTF-8" standalone="no"?>
<!DOCTYPE svg PUBLIC "-//W3C//DTD SVG 1.1//EN" "http://www.w3.org/Graphics/SVG/1.1/DTD/svg11.dtd">
<svg width="100%" height="100%" viewBox="0 0 228 228" version="1.1" xmlns="http://www.w3.org/2000/svg" xmlns:xlink="http://www.w3.org/1999/xlink" xml:space="preserve" xmlns:serif="http://www.serif.com/" style="fill-rule:evenodd;clip-rule:evenodd;stroke-linecap:square;stroke-linejoin:round;stroke-miterlimit:1.5;">
    <g transform="matrix(1,0,0,1,-17495.3,-750.549)">
        <g transform="matrix(2.58124,0,0,2.63205,19536.5,674.474)">
            <g transform="matrix(0.175933,0,0,0.172537,-4738.2,-3670.77)">
                <path d="M22678.8,21450.9C22680.4,21447.8 22683.6,21445.9 22687.1,21445.9C22690.6,21445.9 22693.7,21447.8 22695.3,21450.9L22714.2,21486.9L22741.8,21457C22744.1,21454.5 22747.7,21453.4 22751,21454.3C22754.4,21455.2 22756.9,21457.9 22757.7,21461.3L22766.6,21501L22801,21479.2C22803.9,21477.3 22807.6,21477.3 22810.6,21479C22813.6,21480.7 22815.4,21484 22815.2,21487.4L22813.6,21528.1L22852.4,21515.9C22855.7,21514.9 22859.3,21515.8 22861.8,21518.3C22864.2,21520.7 22865.1,21524.3 22864.1,21527.6L22851.9,21566.4L22892.6,21564.8C22896,21564.6 22899.3,21566.4 22901,21569.4C22902.7,21572.4 22902.7,21576.1 22900.8,21579.1L22879,21613.4L22918.7,21622.3C22922.1,21623.1 22924.8,21625.6 22925.7,21629C22926.6,21632.3 22925.5,21635.9 22923,21638.2L22893.1,21665.8L22929.1,21684.7C22932.2,21686.3 22934.1,21689.4 22934.1,21692.9C22934.1,21696.4 22932.2,21699.6 22929.1,21701.2L22893.1,21720L22923,21747.6C22925.5,21749.9 22926.6,21753.5 22925.7,21756.8C22924.8,21760.2 22922.1,21762.8 22918.7,21763.5L22879,21772.4L22900.8,21806.8C22902.7,21809.7 22902.7,21813.4 22901,21816.4C22899.3,21819.4 22896,21821.2 22892.6,21821.1L22851.9,21819.4L22864.1,21858.2C22865.1,21861.5 22864.2,21865.1 22861.8,21867.6C22859.3,21870 22855.7,21870.9 22852.4,21869.9L22813.6,21857.7L22815.2,21898.4C22815.4,21901.8 22813.6,21905.1 22810.6,21906.8C22807.6,21908.6 22803.9,21908.5 22801,21906.6L22766.6,21884.9L22757.7,21924.5C22756.9,21927.9 22754.4,21930.6 22751,21931.5C22747.7,21932.4 22744.1,21931.4 22741.8,21928.8L22714.2,21898.9L22695.3,21934.9C22693.7,21938 22690.6,21939.9 22687.1,21939.9C22683.6,21939.9 22680.4,21938 22678.8,21934.9L22660,21898.9L22632.4,21928.8C22630.1,21931.4 22626.5,21932.4 22623.2,21931.5C22619.8,21930.6 22617.2,21927.9 22616.5,21924.5L22607.6,21884.9L22573.2,21906.6C22570.3,21908.5 22566.6,21908.6 22563.6,21906.8C22560.6,21905.1 22558.8,21901.8 22558.9,21898.4L22560.6,21857.7L22521.8,21869.9C22518.5,21870.9 22514.9,21870 22512.4,21867.6C22510,21865.1 22509.1,21861.5 22510.1,21858.2L22522.3,21819.4L22481.6,21821.1C22478.2,21821.2 22474.9,21819.4 22473.2,21816.4C22471.4,21813.4 22471.5,21809.7 22473.4,21806.8L22495.1,21772.4L22455.5,21763.5C22452.1,21762.8 22449.4,21760.2 22448.5,21756.8C22447.6,21753.5 22448.6,21749.9 22451.2,21747.6L22481.1,21720L22445.1,21701.2C22442,21699.6 22440.1,21696.4 22440.1,21692.9C22440.1,21689.4 22442,21686.3 22445.1,21684.7L22481.1,21665.8L22451.2,21638.2C22448.6,21635.9 22447.6,21632.3 22448.5,21629C22449.4,21625.6 22452.1,21623.1 22455.5,21622.3L22495.1,21613.4L22473.4,21579.1C22471.5,21576.1 22471.4,21572.4 22473.2,21569.4C22474.9,21566.4 22478.2,21564.6 22481.6,21564.8L22522.3,21566.4L22510.1,21527.6C22509.1,21524.3 22510,21520.7 22512.4,21518.3C22514.9,21515.8 22518.5,21514.9 22521.8,21515.9L22560.6,21528.1L22558.9,21487.4C22558.8,21484 22560.6,21480.7 22563.6,21479C22566.6,21477.3 22570.3,21477.3 22573.2,21479.2L22607.6,21501L22616.5,21461.3C22617.2,21457.9 22619.8,21455.2 22623.2,21454.3C22626.5,21453.4 22630.1,21454.5 22632.4,21457L22660,21486.9L22678.8,21450.9Z" style="fill:none;stroke:rgb(255,0,0);stroke-width:6.22px;"/>
            </g>
        </g>
    </g>
</svg>
